# xmcd CD database file
#
# Track frame offsets:
#	150
#	20345
#	35405
#	57270
#	73177
#	96795
#	113057
#	129502
#	142872
#	169370
#
# Disc length: 2502 seconds
#
# Revision: 2
# Processed by: cddbd v1.5.2PL0 Copyright (c) Steve Scherf et al.
# Submitted via: CDex 1.50
#
DISCID=8609c40a
DTITLE=Franc, Rene and The Bootleggers - -Blues in the air-
DYEAR=1974
DGENRE=Blues
TTITLE0=St. Louis blues 
TTITLE1=Si tu vois ma mere
TTITLE2=Just one of those things
TTITLE3=Parle de Christel
TTITLE4=Don't get around much any more
TTITLE5=Bugle call rag
TTITLE6=Dorothea
TTITLE7=Let's face fats
TTITLE8=Blues in the air
TTITLE9=Dardanella
EXTD=YEAR: 1974
EXTT0=
EXTT1=
EXTT2=
EXTT3=
EXTT4=
EXTT5=
EXTT6=
EXTT7=
EXTT8=
EXTT9=
PLAYORDER=
